<svg width="67" height="65" fill="none" xmlns="http://www.w3.org/2000/svg"><path d="M2 31.968C2 15.418 16.241 2 33.809 2c3.237 0 6.362.456 9.306 1.303" stroke="#fff" stroke-width="4" stroke-linecap="round" stroke-linejoin="round"/><path fill-rule="evenodd" clip-rule="evenodd" d="M26.963 38.418c3.78 3.562 9.91 3.562 13.69 0 3.781-3.562 19.432-28.6 18.049-29.903-1.383-1.303-27.958 13.442-31.74 17.004-3.78 3.562-3.78 9.337 0 12.899zm6.845-3.844c1.528 0 2.766-1.166 2.766-2.605 0-1.44-1.238-2.607-2.766-2.607-1.527 0-2.766 1.167-2.766 2.607 0 1.439 1.239 2.605 2.766 2.605z" fill="#fff"/><ellipse cx="6.149" cy="47.604" rx="2.766" ry="2.606" fill="#fff"/><ellipse cx="17.213" cy="58.028" rx="2.766" ry="2.606" fill="#fff"/><ellipse cx="33.808" cy="61.937" rx="2.766" ry="2.606" fill="#fff"/><ellipse cx="50.404" cy="58.028" rx="2.766" ry="2.606" fill="#fff"/><ellipse cx="60.085" cy="47.604" rx="2.766" ry="2.606" fill="#fff"/><ellipse cx="64.234" cy="31.968" rx="2.766" ry="2.606" fill="#fff"/></svg>