<svg width="1440" height="582" viewBox="0 0 1440 582" fill="none" xmlns="http://www.w3.org/2000/svg">
<path d="M0 530.51C202.703 530.51 347.472 495.633 480.333 497.758C789.74 502.705 643.639 355.682 960.667 355.682C1305.86 355.682 1223.24 226 1441 226" stroke="#5F82FF" stroke-width="3"/>
<path d="M480.333 497.758C347.472 495.633 202.703 530.51 0 530.51V573H1441V226C1223.24 226 1305.86 355.682 960.667 355.682C643.639 355.682 789.74 502.705 480.333 497.758Z" fill="url(#paint0_linear_19268_3)" fill-opacity="0.4"/>
<line x1="924.5" y1="308" x2="924.5" y2="497" stroke="#D8E0F7"/>
<g filter="url(#filter0_d_19268_3)">
<circle cx="924.5" cy="356.5" r="7.5" fill="white"/>
<circle cx="924.5" cy="356.5" r="6.5" stroke="#5E80FE" stroke-width="2"/>
</g>
<line x1="1332.5" y1="108" x2="1332.5" y2="425" stroke="#D8E0F7"/>
<g filter="url(#filter1_d_19268_3)">
<circle cx="1332.5" cy="242.5" r="7.5" fill="white"/>
<circle cx="1332.5" cy="242.5" r="6.5" stroke="#5E80FE" stroke-width="2"/>
</g>
<line x1="515.5" y1="486" x2="515.5" y2="545" stroke="#D8E0F7"/>
<line x1="107.5" y1="370" x2="107.5" y2="560" stroke="#D8E0F7"/>
<mask id="path-11-inside-1_19268_3" fill="white">
<path fill-rule="evenodd" clip-rule="evenodd" d="M154 434C154 432.343 152.657 431 151 431H65C63.3431 431 62 432.343 62 434V491.26C62 492.917 63.3431 494.26 65 494.26H101.669C102.665 494.26 103.596 494.754 104.154 495.579L105.515 497.591C106.705 499.35 109.295 499.35 110.485 497.591L111.846 495.579C112.404 494.754 113.335 494.26 114.331 494.26H151C152.657 494.26 154 492.917 154 491.26V434Z"/>
</mask>
<path fill-rule="evenodd" clip-rule="evenodd" d="M154 434C154 432.343 152.657 431 151 431H65C63.3431 431 62 432.343 62 434V491.26C62 492.917 63.3431 494.26 65 494.26H101.669C102.665 494.26 103.596 494.754 104.154 495.579L105.515 497.591C106.705 499.35 109.295 499.35 110.485 497.591L111.846 495.579C112.404 494.754 113.335 494.26 114.331 494.26H151C152.657 494.26 154 492.917 154 491.26V434Z" fill="white"/>
<path d="M111.846 495.579L111.017 495.019L111.846 495.579ZM105.515 497.591L106.343 497.031L105.515 497.591ZM110.485 497.591L111.313 498.151L110.485 497.591ZM65 432H151V430H65V432ZM63 491.26V434H61V491.26H63ZM101.669 493.26H65V495.26H101.669V493.26ZM106.343 497.031L104.983 495.019L103.326 496.14L104.687 498.151L106.343 497.031ZM111.017 495.019L109.657 497.031L111.313 498.151L112.674 496.14L111.017 495.019ZM151 493.26H114.331V495.26H151V493.26ZM153 434V491.26H155V434H153ZM151 495.26C153.209 495.26 155 493.469 155 491.26H153C153 492.365 152.105 493.26 151 493.26V495.26ZM112.674 496.14C113.046 495.59 113.667 495.26 114.331 495.26V493.26C113.003 493.26 111.761 493.919 111.017 495.019L112.674 496.14ZM104.687 498.151C106.273 500.497 109.727 500.497 111.313 498.151L109.657 497.031C108.863 498.204 107.136 498.204 106.343 497.031L104.687 498.151ZM101.669 495.26C102.333 495.26 102.954 495.59 103.326 496.14L104.983 495.019C104.239 493.919 102.997 493.26 101.669 493.26V495.26ZM61 491.26C61 493.469 62.7909 495.26 65 495.26V493.26C63.8954 493.26 63 492.365 63 491.26H61ZM151 432C152.105 432 153 432.895 153 434H155C155 431.791 153.209 430 151 430V432ZM65 430C62.7909 430 61 431.791 61 434H63C63 432.895 63.8954 432 65 432V430Z" fill="#D8E0F7" mask="url(#path-11-inside-1_19268_3)"/>
<g filter="url(#filter2_d_19268_3)">
<circle cx="107.5" cy="527.5" r="7.5" fill="white"/>
<circle cx="107.5" cy="527.5" r="6.5" stroke="#5E80FE" stroke-width="2"/>
</g>
<g filter="url(#filter3_d_19268_3)">
<path d="M264.72 401.48C258.247 401.48 253 406.83 253 413.429H276.441C276.441 406.83 271.194 401.48 264.72 401.48Z" fill="white"/>
</g>
<g filter="url(#filter4_d_19268_3)">
<path d="M310.683 407.455C301.672 407.455 294.366 414.862 294.366 424H327C327 414.862 319.695 407.455 310.683 407.455Z" fill="white"/>
</g>
<g filter="url(#filter5_d_19268_3)">
<path d="M286.093 399.182C272.386 399.182 261.273 410.293 261.273 424H310.913C310.913 410.293 299.801 399.182 286.093 399.182Z" fill="white"/>
</g>
<g filter="url(#filter6_d_19268_3)">
<path d="M1205.01 497.459C1186.23 497.459 1171 512.924 1171 532H1239.02C1239.02 512.924 1223.79 497.459 1205.01 497.459Z" fill="white"/>
</g>
<g filter="url(#filter7_d_19268_3)">
<path d="M1181.68 468C1168.6 468 1158 478.781 1158 492.081H1205.37C1205.37 478.781 1194.76 468 1181.68 468Z" fill="white"/>
</g>
<g filter="url(#filter8_d_19268_3)">
<path d="M1136.73 480.189C1108.16 480.189 1085 503.386 1085 532H1188.47C1188.47 503.386 1165.31 480.189 1136.73 480.189Z" fill="white"/>
</g>
<g filter="url(#filter9_d_19268_3)">
<path d="M1262.91 56C1241.42 56 1224 73.4609 1224 95H1301.81C1301.81 73.4609 1284.39 56 1262.91 56Z" fill="white"/>
</g>
<g filter="url(#filter10_d_19268_3)">
<path d="M1279.5 89C1267.07 89 1257 99.2975 1257 112H1302C1302 99.2975 1291.93 89 1279.5 89Z" fill="white"/>
</g>
<g filter="url(#filter11_d_19268_3)">
<path d="M275.5 95C263.074 95 253 105.297 253 118H298C298 105.297 287.926 95 275.5 95Z" fill="white"/>
</g>
<g filter="url(#filter12_d_19268_3)">
<path d="M75 255C75 213.026 41.6452 179 0.5 179V255H75Z" fill="white"/>
</g>
<g filter="url(#filter13_d_19268_3)">
<path d="M317.112 389C311.651 389 307.224 393.559 307.224 399.182H327C327 393.559 322.573 389 317.112 389Z" fill="white"/>
</g>
<g filter="url(#filter14_d_19268_3)">
<path d="M1223.5 40C1214.94 40 1208 47.1634 1208 56H1239C1239 47.1634 1232.06 40 1223.5 40Z" fill="white"/>
</g>
<line y1="3.5" x2="1440" y2="3.5" stroke="#D8E3FE"/>
<g filter="url(#filter15_d_19268_3)">
<circle cx="515.5" cy="497.5" r="7.5" fill="white"/>
<circle cx="515.5" cy="497.5" r="6.5" stroke="#5E80FE" stroke-width="2"/>
</g>
<mask id="path-30-inside-2_19268_3" fill="white">
<path fill-rule="evenodd" clip-rule="evenodd" d="M562 411C562 409.343 560.657 408 559 408H473C471.343 408 470 409.343 470 411V468.26C470 469.917 471.343 471.26 473 471.26H509.669C510.665 471.26 511.596 471.754 512.154 472.579L513.515 474.591C514.705 476.35 517.295 476.35 518.485 474.591L519.846 472.579C520.403 471.754 521.335 471.26 522.331 471.26H559C560.657 471.26 562 469.917 562 468.26V411Z"/>
</mask>
<path fill-rule="evenodd" clip-rule="evenodd" d="M562 411C562 409.343 560.657 408 559 408H473C471.343 408 470 409.343 470 411V468.26C470 469.917 471.343 471.26 473 471.26H509.669C510.665 471.26 511.596 471.754 512.154 472.579L513.515 474.591C514.705 476.35 517.295 476.35 518.485 474.591L519.846 472.579C520.403 471.754 521.335 471.26 522.331 471.26H559C560.657 471.26 562 469.917 562 468.26V411Z" fill="white"/>
<path d="M519.846 472.579L519.017 472.019L519.846 472.579ZM513.515 474.591L514.343 474.031L513.515 474.591ZM512.154 472.579L511.326 473.14L512.154 472.579ZM473 409H559V407H473V409ZM471 468.26V411H469V468.26H471ZM509.669 470.26H473V472.26H509.669V470.26ZM514.343 474.031L512.983 472.019L511.326 473.14L512.687 475.151L514.343 474.031ZM519.017 472.019L517.657 474.031L519.313 475.151L520.674 473.14L519.017 472.019ZM559 470.26H522.331V472.26H559V470.26ZM561 411V468.26H563V411H561ZM559 472.26C561.209 472.26 563 470.469 563 468.26H561C561 469.365 560.105 470.26 559 470.26V472.26ZM520.674 473.14C521.046 472.59 521.667 472.26 522.331 472.26V470.26C521.003 470.26 519.761 470.919 519.017 472.019L520.674 473.14ZM512.687 475.151C514.273 477.497 517.727 477.497 519.313 475.151L517.657 474.031C516.864 475.204 515.136 475.204 514.343 474.031L512.687 475.151ZM509.669 472.26C510.333 472.26 510.954 472.59 511.326 473.14L512.983 472.019C512.239 470.919 510.997 470.26 509.669 470.26V472.26ZM469 468.26C469 470.469 470.791 472.26 473 472.26V470.26C471.895 470.26 471 469.365 471 468.26H469ZM559 409C560.105 409 561 409.895 561 411H563C563 408.791 561.209 407 559 407V409ZM473 407C470.791 407 469 408.791 469 411H471C471 409.895 471.895 409 473 409V407Z" fill="#D8E0F7" mask="url(#path-30-inside-2_19268_3)"/>
<path d="M499 441.25C499 431.723 506.668 424 516.128 424C517.871 424 519.554 424.262 521.139 424.75" stroke="#5F82FF" stroke-width="4" stroke-linecap="round" stroke-linejoin="round"/>
<path fill-rule="evenodd" clip-rule="evenodd" d="M512.442 444.962C514.477 447.013 517.778 447.013 519.814 444.962C521.849 442.912 530.276 428.5 529.532 427.75C528.787 427 514.477 435.487 512.442 437.538C510.406 439.588 510.406 442.912 512.442 444.962ZM516.127 442.75C516.95 442.75 517.617 442.078 517.617 441.25C517.617 440.422 516.95 439.75 516.127 439.75C515.305 439.75 514.638 440.422 514.638 441.25C514.638 442.078 515.305 442.75 516.127 442.75Z" fill="#5F82FF"/>
<ellipse cx="501.234" cy="450.25" rx="1.48936" ry="1.5" fill="#5F82FF"/>
<ellipse cx="507.191" cy="456.25" rx="1.48936" ry="1.5" fill="#5F82FF"/>
<ellipse cx="516.128" cy="458.5" rx="1.48936" ry="1.5" fill="#5F82FF"/>
<ellipse cx="525.064" cy="456.25" rx="1.48936" ry="1.5" fill="#5F82FF"/>
<ellipse cx="530.277" cy="450.25" rx="1.48936" ry="1.5" fill="#5F82FF"/>
<ellipse cx="532.511" cy="441.25" rx="1.48936" ry="1.5" fill="#5F82FF"/>
<mask id="path-40-inside-3_19268_3" fill="white">
<path fill-rule="evenodd" clip-rule="evenodd" d="M971 269C971 267.343 969.657 266 968 266H882C880.343 266 879 267.343 879 269V326.26C879 327.917 880.343 329.26 882 329.26H918.669C919.665 329.26 920.596 329.754 921.154 330.579L922.515 332.591C923.705 334.35 926.295 334.35 927.485 332.591L928.846 330.579C929.404 329.754 930.335 329.26 931.331 329.26H968C969.657 329.26 971 327.917 971 326.26V269Z"/>
</mask>
<path fill-rule="evenodd" clip-rule="evenodd" d="M971 269C971 267.343 969.657 266 968 266H882C880.343 266 879 267.343 879 269V326.26C879 327.917 880.343 329.26 882 329.26H918.669C919.665 329.26 920.596 329.754 921.154 330.579L922.515 332.591C923.705 334.35 926.295 334.35 927.485 332.591L928.846 330.579C929.404 329.754 930.335 329.26 931.331 329.26H968C969.657 329.26 971 327.917 971 326.26V269Z" fill="white"/>
<path d="M928.846 330.579L928.017 330.019L928.846 330.579ZM922.515 332.591L923.343 332.031L922.515 332.591ZM927.485 332.591L926.657 332.031L927.485 332.591ZM921.154 330.579L921.983 330.019L921.154 330.579ZM882 267H968V265H882V267ZM880 326.26V269H878V326.26H880ZM918.669 328.26H882V330.26H918.669V328.26ZM923.343 332.031L921.983 330.019L920.326 331.14L921.687 333.151L923.343 332.031ZM928.017 330.019L926.657 332.031L928.313 333.151L929.674 331.14L928.017 330.019ZM968 328.26H931.331V330.26H968V328.26ZM970 269V326.26H972V269H970ZM968 330.26C970.209 330.26 972 328.469 972 326.26H970C970 327.365 969.105 328.26 968 328.26V330.26ZM929.674 331.14C930.046 330.59 930.667 330.26 931.331 330.26V328.26C930.003 328.26 928.761 328.919 928.017 330.019L929.674 331.14ZM921.687 333.151C923.273 335.497 926.727 335.497 928.313 333.151L926.657 332.031C925.863 333.204 924.136 333.204 923.343 332.031L921.687 333.151ZM918.669 330.26C919.333 330.26 919.954 330.59 920.326 331.14L921.983 330.019C921.239 328.919 919.997 328.26 918.669 328.26V330.26ZM878 326.26C878 328.469 879.791 330.26 882 330.26V328.26C880.895 328.26 880 327.365 880 326.26H878ZM968 267C969.105 267 970 267.895 970 269H972C972 266.791 970.209 265 968 265V267ZM882 265C879.791 265 878 266.791 878 269H880C880 267.895 880.895 267 882 267V265Z" fill="#D8E0F7" mask="url(#path-40-inside-3_19268_3)"/>
<path d="M908 299.25C908 289.723 915.668 282 925.128 282C926.871 282 928.554 282.262 930.139 282.75" stroke="#5F82FF" stroke-width="4" stroke-linecap="round" stroke-linejoin="round"/>
<path fill-rule="evenodd" clip-rule="evenodd" d="M921.442 302.962C923.477 305.013 926.778 305.013 928.814 302.962C930.849 300.912 939.276 286.5 938.532 285.75C937.787 285 923.477 293.487 921.442 295.538C919.406 297.588 919.406 300.912 921.442 302.962ZM925.128 300.75C925.95 300.75 926.617 300.078 926.617 299.25C926.617 298.422 925.95 297.75 925.128 297.75C924.305 297.75 923.638 298.422 923.638 299.25C923.638 300.078 924.305 300.75 925.128 300.75Z" fill="#5F82FF"/>
<ellipse cx="910.234" cy="308.25" rx="1.48936" ry="1.5" fill="#5F82FF"/>
<ellipse cx="916.192" cy="314.25" rx="1.48936" ry="1.5" fill="#5F82FF"/>
<ellipse cx="925.128" cy="316.5" rx="1.48936" ry="1.5" fill="#5F82FF"/>
<ellipse cx="934.064" cy="314.25" rx="1.48936" ry="1.5" fill="#5F82FF"/>
<ellipse cx="939.277" cy="308.25" rx="1.48936" ry="1.5" fill="#5F82FF"/>
<ellipse cx="941.511" cy="299.25" rx="1.48936" ry="1.5" fill="#5F82FF"/>
<mask id="path-50-inside-4_19268_3" fill="white">
<path fill-rule="evenodd" clip-rule="evenodd" d="M1379 156C1379 154.343 1377.66 153 1376 153H1290C1288.34 153 1287 154.343 1287 156V213.26C1287 214.917 1288.34 216.26 1290 216.26H1326.67C1327.67 216.26 1328.6 216.754 1329.15 217.579L1330.51 219.591C1331.7 221.35 1334.3 221.35 1335.48 219.591L1336.85 217.579C1337.4 216.754 1338.33 216.26 1339.33 216.26H1376C1377.66 216.26 1379 214.917 1379 213.26V156Z"/>
</mask>
<path fill-rule="evenodd" clip-rule="evenodd" d="M1379 156C1379 154.343 1377.66 153 1376 153H1290C1288.34 153 1287 154.343 1287 156V213.26C1287 214.917 1288.34 216.26 1290 216.26H1326.67C1327.67 216.26 1328.6 216.754 1329.15 217.579L1330.51 219.591C1331.7 221.35 1334.3 221.35 1335.48 219.591L1336.85 217.579C1337.4 216.754 1338.33 216.26 1339.33 216.26H1376C1377.66 216.26 1379 214.917 1379 213.26V156Z" fill="white"/>
<path d="M1336.85 217.579L1336.02 217.019L1336.85 217.579ZM1330.51 219.591L1331.34 219.031L1330.51 219.591ZM1335.48 219.591L1336.31 220.151L1335.48 219.591ZM1290 154H1376V152H1290V154ZM1288 213.26V156H1286V213.26H1288ZM1326.67 215.26H1290V217.26H1326.67V215.26ZM1331.34 219.031L1329.98 217.019L1328.33 218.14L1329.69 220.151L1331.34 219.031ZM1336.02 217.019L1334.66 219.031L1336.31 220.151L1337.67 218.14L1336.02 217.019ZM1376 215.26H1339.33V217.26H1376V215.26ZM1378 156V213.26H1380V156H1378ZM1376 217.26C1378.21 217.26 1380 215.469 1380 213.26H1378C1378 214.365 1377.1 215.26 1376 215.26V217.26ZM1337.67 218.14C1338.05 217.59 1338.67 217.26 1339.33 217.26V215.26C1338 215.26 1336.76 215.919 1336.02 217.019L1337.67 218.14ZM1329.69 220.151C1331.27 222.497 1334.73 222.497 1336.31 220.151L1334.66 219.031C1333.86 220.204 1332.14 220.204 1331.34 219.031L1329.69 220.151ZM1326.67 217.26C1327.33 217.26 1327.95 217.59 1328.33 218.14L1329.98 217.019C1329.24 215.919 1328 215.26 1326.67 215.26V217.26ZM1286 213.26C1286 215.469 1287.79 217.26 1290 217.26V215.26C1288.9 215.26 1288 214.365 1288 213.26H1286ZM1376 154C1377.1 154 1378 154.895 1378 156H1380C1380 153.791 1378.21 152 1376 152V154ZM1290 152C1287.79 152 1286 153.791 1286 156H1288C1288 154.895 1288.9 154 1290 154V152Z" fill="#D8E0F7" mask="url(#path-50-inside-4_19268_3)"/>
<path d="M1316 186.25C1316 176.723 1323.67 169 1333.13 169C1334.87 169 1336.55 169.262 1338.14 169.75" stroke="#5F82FF" stroke-width="4" stroke-linecap="round" stroke-linejoin="round"/>
<path fill-rule="evenodd" clip-rule="evenodd" d="M1329.44 189.962C1331.48 192.013 1334.78 192.013 1336.81 189.962C1338.85 187.912 1347.28 173.5 1346.53 172.75C1345.79 172 1331.48 180.487 1329.44 182.538C1327.41 184.588 1327.41 187.912 1329.44 189.962ZM1333.13 187.75C1333.95 187.75 1334.62 187.078 1334.62 186.25C1334.62 185.422 1333.95 184.75 1333.13 184.75C1332.3 184.75 1331.64 185.422 1331.64 186.25C1331.64 187.078 1332.3 187.75 1333.13 187.75Z" fill="#5F82FF"/>
<ellipse cx="1318.23" cy="195.25" rx="1.48936" ry="1.5" fill="#5F82FF"/>
<ellipse cx="1324.19" cy="201.25" rx="1.48936" ry="1.5" fill="#5F82FF"/>
<ellipse cx="1333.13" cy="203.5" rx="1.48936" ry="1.5" fill="#5F82FF"/>
<ellipse cx="1342.06" cy="201.25" rx="1.48936" ry="1.5" fill="#5F82FF"/>
<ellipse cx="1347.28" cy="195.25" rx="1.48936" ry="1.5" fill="#5F82FF"/>
<ellipse cx="1349.51" cy="186.25" rx="1.48936" ry="1.5" fill="#5F82FF"/>
<defs>
<filter id="filter0_d_19268_3" x="902" y="334" width="45" height="45" filterUnits="userSpaceOnUse" color-interpolation-filters="sRGB">
<feFlood flood-opacity="0" result="BackgroundImageFix"/>
<feColorMatrix in="SourceAlpha" type="matrix" values="0 0 0 0 0 0 0 0 0 0 0 0 0 0 0 0 0 0 127 0" result="hardAlpha"/>
<feOffset/>
<feGaussianBlur stdDeviation="7.5"/>
<feColorMatrix type="matrix" values="0 0 0 0 0.323144 0 0 0 0 0.512664 0 0 0 0 1 0 0 0 0.25 0"/>
<feBlend mode="normal" in2="BackgroundImageFix" result="effect1_dropShadow_19268_3"/>
<feBlend mode="normal" in="SourceGraphic" in2="effect1_dropShadow_19268_3" result="shape"/>
</filter>
<filter id="filter1_d_19268_3" x="1310" y="220" width="45" height="45" filterUnits="userSpaceOnUse" color-interpolation-filters="sRGB">
<feFlood flood-opacity="0" result="BackgroundImageFix"/>
<feColorMatrix in="SourceAlpha" type="matrix" values="0 0 0 0 0 0 0 0 0 0 0 0 0 0 0 0 0 0 127 0" result="hardAlpha"/>
<feOffset/>
<feGaussianBlur stdDeviation="7.5"/>
<feColorMatrix type="matrix" values="0 0 0 0 0.323144 0 0 0 0 0.512664 0 0 0 0 1 0 0 0 0.25 0"/>
<feBlend mode="normal" in2="BackgroundImageFix" result="effect1_dropShadow_19268_3"/>
<feBlend mode="normal" in="SourceGraphic" in2="effect1_dropShadow_19268_3" result="shape"/>
</filter>
<filter id="filter2_d_19268_3" x="85" y="505" width="45" height="45" filterUnits="userSpaceOnUse" color-interpolation-filters="sRGB">
<feFlood flood-opacity="0" result="BackgroundImageFix"/>
<feColorMatrix in="SourceAlpha" type="matrix" values="0 0 0 0 0 0 0 0 0 0 0 0 0 0 0 0 0 0 127 0" result="hardAlpha"/>
<feOffset/>
<feGaussianBlur stdDeviation="7.5"/>
<feColorMatrix type="matrix" values="0 0 0 0 0.323144 0 0 0 0 0.512664 0 0 0 0 1 0 0 0 0.25 0"/>
<feBlend mode="normal" in2="BackgroundImageFix" result="effect1_dropShadow_19268_3"/>
<feBlend mode="normal" in="SourceGraphic" in2="effect1_dropShadow_19268_3" result="shape"/>
</filter>
<filter id="filter3_d_19268_3" x="208" y="361.48" width="113.441" height="101.949" filterUnits="userSpaceOnUse" color-interpolation-filters="sRGB">
<feFlood flood-opacity="0" result="BackgroundImageFix"/>
<feColorMatrix in="SourceAlpha" type="matrix" values="0 0 0 0 0 0 0 0 0 0 0 0 0 0 0 0 0 0 127 0" result="hardAlpha"/>
<feOffset dy="5"/>
<feGaussianBlur stdDeviation="22.5"/>
<feColorMatrix type="matrix" values="0 0 0 0 0.593724 0 0 0 0 0.684469 0 0 0 0 0.888646 0 0 0 0.1 0"/>
<feBlend mode="normal" in2="BackgroundImageFix" result="effect1_dropShadow_19268_3"/>
<feBlend mode="normal" in="SourceGraphic" in2="effect1_dropShadow_19268_3" result="shape"/>
</filter>
<filter id="filter4_d_19268_3" x="249.366" y="367.455" width="122.634" height="106.545" filterUnits="userSpaceOnUse" color-interpolation-filters="sRGB">
<feFlood flood-opacity="0" result="BackgroundImageFix"/>
<feColorMatrix in="SourceAlpha" type="matrix" values="0 0 0 0 0 0 0 0 0 0 0 0 0 0 0 0 0 0 127 0" result="hardAlpha"/>
<feOffset dy="5"/>
<feGaussianBlur stdDeviation="22.5"/>
<feColorMatrix type="matrix" values="0 0 0 0 0.593724 0 0 0 0 0.684469 0 0 0 0 0.888646 0 0 0 0.1 0"/>
<feBlend mode="normal" in2="BackgroundImageFix" result="effect1_dropShadow_19268_3"/>
<feBlend mode="normal" in="SourceGraphic" in2="effect1_dropShadow_19268_3" result="shape"/>
</filter>
<filter id="filter5_d_19268_3" x="216.273" y="359.182" width="139.64" height="114.818" filterUnits="userSpaceOnUse" color-interpolation-filters="sRGB">
<feFlood flood-opacity="0" result="BackgroundImageFix"/>
<feColorMatrix in="SourceAlpha" type="matrix" values="0 0 0 0 0 0 0 0 0 0 0 0 0 0 0 0 0 0 127 0" result="hardAlpha"/>
<feOffset dy="5"/>
<feGaussianBlur stdDeviation="22.5"/>
<feColorMatrix type="matrix" values="0 0 0 0 0.593724 0 0 0 0 0.684469 0 0 0 0 0.888646 0 0 0 0.1 0"/>
<feBlend mode="normal" in2="BackgroundImageFix" result="effect1_dropShadow_19268_3"/>
<feBlend mode="normal" in="SourceGraphic" in2="effect1_dropShadow_19268_3" result="shape"/>
</filter>
<filter id="filter6_d_19268_3" x="1126" y="457.459" width="158.021" height="124.541" filterUnits="userSpaceOnUse" color-interpolation-filters="sRGB">
<feFlood flood-opacity="0" result="BackgroundImageFix"/>
<feColorMatrix in="SourceAlpha" type="matrix" values="0 0 0 0 0 0 0 0 0 0 0 0 0 0 0 0 0 0 127 0" result="hardAlpha"/>
<feOffset dy="5"/>
<feGaussianBlur stdDeviation="22.5"/>
<feColorMatrix type="matrix" values="0 0 0 0 0.593724 0 0 0 0 0.684469 0 0 0 0 0.888646 0 0 0 0.1 0"/>
<feBlend mode="normal" in2="BackgroundImageFix" result="effect1_dropShadow_19268_3"/>
<feBlend mode="normal" in="SourceGraphic" in2="effect1_dropShadow_19268_3" result="shape"/>
</filter>
<filter id="filter7_d_19268_3" x="1113" y="428" width="137.367" height="114.081" filterUnits="userSpaceOnUse" color-interpolation-filters="sRGB">
<feFlood flood-opacity="0" result="BackgroundImageFix"/>
<feColorMatrix in="SourceAlpha" type="matrix" values="0 0 0 0 0 0 0 0 0 0 0 0 0 0 0 0 0 0 127 0" result="hardAlpha"/>
<feOffset dy="5"/>
<feGaussianBlur stdDeviation="22.5"/>
<feColorMatrix type="matrix" values="0 0 0 0 0.593724 0 0 0 0 0.684469 0 0 0 0 0.888646 0 0 0 0.1 0"/>
<feBlend mode="normal" in2="BackgroundImageFix" result="effect1_dropShadow_19268_3"/>
<feBlend mode="normal" in="SourceGraphic" in2="effect1_dropShadow_19268_3" result="shape"/>
</filter>
<filter id="filter8_d_19268_3" x="1040" y="440.189" width="193.469" height="141.811" filterUnits="userSpaceOnUse" color-interpolation-filters="sRGB">
<feFlood flood-opacity="0" result="BackgroundImageFix"/>
<feColorMatrix in="SourceAlpha" type="matrix" values="0 0 0 0 0 0 0 0 0 0 0 0 0 0 0 0 0 0 127 0" result="hardAlpha"/>
<feOffset dy="5"/>
<feGaussianBlur stdDeviation="22.5"/>
<feColorMatrix type="matrix" values="0 0 0 0 0.593724 0 0 0 0 0.684469 0 0 0 0 0.888646 0 0 0 0.1 0"/>
<feBlend mode="normal" in2="BackgroundImageFix" result="effect1_dropShadow_19268_3"/>
<feBlend mode="normal" in="SourceGraphic" in2="effect1_dropShadow_19268_3" result="shape"/>
</filter>
<filter id="filter9_d_19268_3" x="1179" y="16" width="167.814" height="129" filterUnits="userSpaceOnUse" color-interpolation-filters="sRGB">
<feFlood flood-opacity="0" result="BackgroundImageFix"/>
<feColorMatrix in="SourceAlpha" type="matrix" values="0 0 0 0 0 0 0 0 0 0 0 0 0 0 0 0 0 0 127 0" result="hardAlpha"/>
<feOffset dy="5"/>
<feGaussianBlur stdDeviation="22.5"/>
<feColorMatrix type="matrix" values="0 0 0 0 0.593724 0 0 0 0 0.684469 0 0 0 0 0.888646 0 0 0 0.1 0"/>
<feBlend mode="normal" in2="BackgroundImageFix" result="effect1_dropShadow_19268_3"/>
<feBlend mode="normal" in="SourceGraphic" in2="effect1_dropShadow_19268_3" result="shape"/>
</filter>
<filter id="filter10_d_19268_3" x="1212" y="49" width="135" height="113" filterUnits="userSpaceOnUse" color-interpolation-filters="sRGB">
<feFlood flood-opacity="0" result="BackgroundImageFix"/>
<feColorMatrix in="SourceAlpha" type="matrix" values="0 0 0 0 0 0 0 0 0 0 0 0 0 0 0 0 0 0 127 0" result="hardAlpha"/>
<feOffset dy="5"/>
<feGaussianBlur stdDeviation="22.5"/>
<feColorMatrix type="matrix" values="0 0 0 0 0.593724 0 0 0 0 0.684469 0 0 0 0 0.888646 0 0 0 0.1 0"/>
<feBlend mode="normal" in2="BackgroundImageFix" result="effect1_dropShadow_19268_3"/>
<feBlend mode="normal" in="SourceGraphic" in2="effect1_dropShadow_19268_3" result="shape"/>
</filter>
<filter id="filter11_d_19268_3" x="208" y="55" width="135" height="113" filterUnits="userSpaceOnUse" color-interpolation-filters="sRGB">
<feFlood flood-opacity="0" result="BackgroundImageFix"/>
<feColorMatrix in="SourceAlpha" type="matrix" values="0 0 0 0 0 0 0 0 0 0 0 0 0 0 0 0 0 0 127 0" result="hardAlpha"/>
<feOffset dy="5"/>
<feGaussianBlur stdDeviation="22.5"/>
<feColorMatrix type="matrix" values="0 0 0 0 0.593724 0 0 0 0 0.684469 0 0 0 0 0.888646 0 0 0 0.1 0"/>
<feBlend mode="normal" in2="BackgroundImageFix" result="effect1_dropShadow_19268_3"/>
<feBlend mode="normal" in="SourceGraphic" in2="effect1_dropShadow_19268_3" result="shape"/>
</filter>
<filter id="filter12_d_19268_3" x="-44.5" y="139" width="164.5" height="166" filterUnits="userSpaceOnUse" color-interpolation-filters="sRGB">
<feFlood flood-opacity="0" result="BackgroundImageFix"/>
<feColorMatrix in="SourceAlpha" type="matrix" values="0 0 0 0 0 0 0 0 0 0 0 0 0 0 0 0 0 0 127 0" result="hardAlpha"/>
<feOffset dy="5"/>
<feGaussianBlur stdDeviation="22.5"/>
<feColorMatrix type="matrix" values="0 0 0 0 0.593724 0 0 0 0 0.684469 0 0 0 0 0.888646 0 0 0 0.1 0"/>
<feBlend mode="normal" in2="BackgroundImageFix" result="effect1_dropShadow_19268_3"/>
<feBlend mode="normal" in="SourceGraphic" in2="effect1_dropShadow_19268_3" result="shape"/>
</filter>
<filter id="filter13_d_19268_3" x="262.224" y="349" width="109.776" height="100.182" filterUnits="userSpaceOnUse" color-interpolation-filters="sRGB">
<feFlood flood-opacity="0" result="BackgroundImageFix"/>
<feColorMatrix in="SourceAlpha" type="matrix" values="0 0 0 0 0 0 0 0 0 0 0 0 0 0 0 0 0 0 127 0" result="hardAlpha"/>
<feOffset dy="5"/>
<feGaussianBlur stdDeviation="22.5"/>
<feColorMatrix type="matrix" values="0 0 0 0 0.593724 0 0 0 0 0.684469 0 0 0 0 0.888646 0 0 0 0.1 0"/>
<feBlend mode="normal" in2="BackgroundImageFix" result="effect1_dropShadow_19268_3"/>
<feBlend mode="normal" in="SourceGraphic" in2="effect1_dropShadow_19268_3" result="shape"/>
</filter>
<filter id="filter14_d_19268_3" x="1163" y="0" width="121" height="106" filterUnits="userSpaceOnUse" color-interpolation-filters="sRGB">
<feFlood flood-opacity="0" result="BackgroundImageFix"/>
<feColorMatrix in="SourceAlpha" type="matrix" values="0 0 0 0 0 0 0 0 0 0 0 0 0 0 0 0 0 0 127 0" result="hardAlpha"/>
<feOffset dy="5"/>
<feGaussianBlur stdDeviation="22.5"/>
<feColorMatrix type="matrix" values="0 0 0 0 0.593724 0 0 0 0 0.684469 0 0 0 0 0.888646 0 0 0 0.1 0"/>
<feBlend mode="normal" in2="BackgroundImageFix" result="effect1_dropShadow_19268_3"/>
<feBlend mode="normal" in="SourceGraphic" in2="effect1_dropShadow_19268_3" result="shape"/>
</filter>
<filter id="filter15_d_19268_3" x="493" y="475" width="45" height="45" filterUnits="userSpaceOnUse" color-interpolation-filters="sRGB">
<feFlood flood-opacity="0" result="BackgroundImageFix"/>
<feColorMatrix in="SourceAlpha" type="matrix" values="0 0 0 0 0 0 0 0 0 0 0 0 0 0 0 0 0 0 127 0" result="hardAlpha"/>
<feOffset/>
<feGaussianBlur stdDeviation="7.5"/>
<feColorMatrix type="matrix" values="0 0 0 0 0.323144 0 0 0 0 0.512664 0 0 0 0 1 0 0 0 0.25 0"/>
<feBlend mode="normal" in2="BackgroundImageFix" result="effect1_dropShadow_19268_3"/>
<feBlend mode="normal" in="SourceGraphic" in2="effect1_dropShadow_19268_3" result="shape"/>
</filter>
<linearGradient id="paint0_linear_19268_3" x1="278.466" y1="573.443" x2="278.466" y2="118.005" gradientUnits="userSpaceOnUse">
<stop stop-color="#4B71FF" stop-opacity="0"/>
<stop offset="1" stop-color="#6B89F8"/>
</linearGradient>
</defs>
</svg>
