<svg width="1440" height="599" viewBox="0 0 1440 599" fill="none" xmlns="http://www.w3.org/2000/svg">
<path d="M0 547.51C202.703 547.51 347.472 512.633 480.333 514.758C789.74 519.705 643.639 372.682 960.667 372.682C1305.86 372.682 1223.24 243 1441 243" stroke="#5F82FF" stroke-width="3"/>
<path d="M480.333 514.758C347.472 512.633 202.703 547.51 0 547.51V590H1441V243C1223.24 243 1305.86 372.682 960.667 372.682C643.639 372.682 789.74 519.705 480.333 514.758Z" fill="url(#paint0_linear_19271_4)" fill-opacity="0.4"/>
<line x1="924.5" y1="325" x2="924.5" y2="514" stroke="#D8E0F7"/>
<g filter="url(#filter0_d_19271_4)">
<circle cx="924.5" cy="373.5" r="7.5" fill="white"/>
<circle cx="924.5" cy="373.5" r="6.5" stroke="#5E80FE" stroke-width="2"/>
</g>
<line x1="1332.5" y1="125" x2="1332.5" y2="442" stroke="#D8E0F7"/>
<g filter="url(#filter1_d_19271_4)">
<circle cx="1332.5" cy="259.5" r="7.5" fill="white"/>
<circle cx="1332.5" cy="259.5" r="6.5" stroke="#5E80FE" stroke-width="2"/>
</g>
<line x1="515.5" y1="503" x2="515.5" y2="562" stroke="#D8E0F7"/>
<line x1="107.5" y1="387" x2="107.5" y2="577" stroke="#D8E0F7"/>
<mask id="path-11-inside-1_19271_4" fill="white">
<path fill-rule="evenodd" clip-rule="evenodd" d="M154 451C154 449.343 152.657 448 151 448H65C63.3431 448 62 449.343 62 451V508.26C62 509.917 63.3431 511.26 65 511.26H101.669C102.665 511.26 103.596 511.754 104.154 512.579L105.515 514.591C106.705 516.35 109.295 516.35 110.485 514.591L111.846 512.579C112.404 511.754 113.335 511.26 114.331 511.26H151C152.657 511.26 154 509.917 154 508.26V451Z"/>
</mask>
<path fill-rule="evenodd" clip-rule="evenodd" d="M154 451C154 449.343 152.657 448 151 448H65C63.3431 448 62 449.343 62 451V508.26C62 509.917 63.3431 511.26 65 511.26H101.669C102.665 511.26 103.596 511.754 104.154 512.579L105.515 514.591C106.705 516.35 109.295 516.35 110.485 514.591L111.846 512.579C112.404 511.754 113.335 511.26 114.331 511.26H151C152.657 511.26 154 509.917 154 508.26V451Z" fill="white"/>
<path d="M111.846 512.579L111.017 512.019L111.846 512.579ZM105.515 514.591L106.343 514.031L105.515 514.591ZM110.485 514.591L111.313 515.151L110.485 514.591ZM65 449H151V447H65V449ZM63 508.26V451H61V508.26H63ZM101.669 510.26H65V512.26H101.669V510.26ZM106.343 514.031L104.983 512.019L103.326 513.14L104.687 515.151L106.343 514.031ZM111.017 512.019L109.657 514.031L111.313 515.151L112.674 513.14L111.017 512.019ZM151 510.26H114.331V512.26H151V510.26ZM153 451V508.26H155V451H153ZM151 512.26C153.209 512.26 155 510.469 155 508.26H153C153 509.365 152.105 510.26 151 510.26V512.26ZM112.674 513.14C113.046 512.59 113.667 512.26 114.331 512.26V510.26C113.003 510.26 111.761 510.919 111.017 512.019L112.674 513.14ZM104.687 515.151C106.273 517.497 109.727 517.497 111.313 515.151L109.657 514.031C108.863 515.204 107.136 515.204 106.343 514.031L104.687 515.151ZM101.669 512.26C102.333 512.26 102.954 512.59 103.326 513.14L104.983 512.019C104.239 510.919 102.997 510.26 101.669 510.26V512.26ZM61 508.26C61 510.469 62.7909 512.26 65 512.26V510.26C63.8954 510.26 63 509.365 63 508.26H61ZM151 449C152.105 449 153 449.895 153 451H155C155 448.791 153.209 447 151 447V449ZM65 447C62.7909 447 61 448.791 61 451H63C63 449.895 63.8954 449 65 449V447Z" fill="#D8E0F7" mask="url(#path-11-inside-1_19271_4)"/>
<g filter="url(#filter2_d_19271_4)">
<circle cx="107.5" cy="544.5" r="7.5" fill="white"/>
<circle cx="107.5" cy="544.5" r="6.5" stroke="#5E80FE" stroke-width="2"/>
</g>
<g filter="url(#filter3_d_19271_4)">
<path d="M264.72 418.48C258.247 418.48 253 423.83 253 430.429H276.441C276.441 423.83 271.194 418.48 264.72 418.48Z" fill="white"/>
</g>
<g filter="url(#filter4_d_19271_4)">
<path d="M310.683 424.455C301.672 424.455 294.366 431.862 294.366 441H327C327 431.862 319.695 424.455 310.683 424.455Z" fill="white"/>
</g>
<g filter="url(#filter5_d_19271_4)">
<path d="M286.093 416.182C272.386 416.182 261.273 427.293 261.273 441H310.913C310.913 427.293 299.801 416.182 286.093 416.182Z" fill="white"/>
</g>
<g filter="url(#filter6_d_19271_4)">
<path d="M1205.01 514.459C1186.23 514.459 1171 529.924 1171 549H1239.02C1239.02 529.924 1223.79 514.459 1205.01 514.459Z" fill="white"/>
</g>
<g filter="url(#filter7_d_19271_4)">
<path d="M1181.68 485C1168.6 485 1158 495.781 1158 509.081H1205.37C1205.37 495.781 1194.76 485 1181.68 485Z" fill="white"/>
</g>
<g filter="url(#filter8_d_19271_4)">
<path d="M1136.73 497.189C1108.16 497.189 1085 520.386 1085 549H1188.47C1188.47 520.386 1165.31 497.189 1136.73 497.189Z" fill="white"/>
</g>
<g filter="url(#filter9_d_19271_4)">
<path d="M1262.91 73C1241.42 73 1224 90.4609 1224 112H1301.81C1301.81 90.4609 1284.39 73 1262.91 73Z" fill="white"/>
</g>
<g filter="url(#filter10_d_19271_4)">
<path d="M1279.5 106C1267.07 106 1257 116.297 1257 129H1302C1302 116.297 1291.93 106 1279.5 106Z" fill="white"/>
</g>
<g filter="url(#filter11_d_19271_4)">
<path d="M275.5 112C263.074 112 253 122.297 253 135H298C298 122.297 287.926 112 275.5 112Z" fill="white"/>
</g>
<g filter="url(#filter12_d_19271_4)">
<path d="M75 272C75 230.026 41.6452 196 0.5 196V272H75Z" fill="white"/>
</g>
<g filter="url(#filter13_d_19271_4)">
<path d="M317.112 406C311.651 406 307.224 410.559 307.224 416.182H327C327 410.559 322.573 406 317.112 406Z" fill="white"/>
</g>
<g filter="url(#filter14_d_19271_4)">
<path d="M1223.5 57C1214.94 57 1208 64.1634 1208 73H1239C1239 64.1634 1232.06 57 1223.5 57Z" fill="white"/>
</g>
<g filter="url(#filter15_d_19271_4)">
<line y1="20.5" x2="1440" y2="20.5" stroke="#D8E3FE"/>
<g filter="url(#filter16_d_19271_4)">
<circle cx="515.5" cy="514.5" r="7.5" fill="white"/>
<circle cx="515.5" cy="514.5" r="6.5" stroke="#5E80FE" stroke-width="2"/>
</g>
<mask id="path-30-inside-2_19271_4" fill="white">
<path fill-rule="evenodd" clip-rule="evenodd" d="M562 428C562 426.343 560.657 425 559 425H473C471.343 425 470 426.343 470 428V485.26C470 486.917 471.343 488.26 473 488.26H509.669C510.665 488.26 511.596 488.754 512.154 489.579L513.515 491.591C514.705 493.35 517.295 493.35 518.485 491.591L519.846 489.579C520.404 488.754 521.335 488.26 522.331 488.26H559C560.657 488.26 562 486.917 562 485.26V428Z"/>
</mask>
<path fill-rule="evenodd" clip-rule="evenodd" d="M562 428C562 426.343 560.657 425 559 425H473C471.343 425 470 426.343 470 428V485.26C470 486.917 471.343 488.26 473 488.26H509.669C510.665 488.26 511.596 488.754 512.154 489.579L513.515 491.591C514.705 493.35 517.295 493.35 518.485 491.591L519.846 489.579C520.404 488.754 521.335 488.26 522.331 488.26H559C560.657 488.26 562 486.917 562 485.26V428Z" fill="white"/>
<path d="M519.846 489.579L519.017 489.019L519.846 489.579ZM513.515 491.591L514.343 491.031L513.515 491.591ZM512.154 489.579L511.326 490.14L512.154 489.579ZM473 426H559V424H473V426ZM471 485.26V428H469V485.26H471ZM509.669 487.26H473V489.26H509.669V487.26ZM514.343 491.031L512.983 489.019L511.326 490.14L512.687 492.151L514.343 491.031ZM519.017 489.019L517.657 491.031L519.313 492.151L520.674 490.14L519.017 489.019ZM559 487.26H522.331V489.26H559V487.26ZM561 428V485.26H563V428H561ZM559 489.26C561.209 489.26 563 487.469 563 485.26H561C561 486.365 560.105 487.26 559 487.26V489.26ZM520.674 490.14C521.046 489.59 521.667 489.26 522.331 489.26V487.26C521.003 487.26 519.761 487.919 519.017 489.019L520.674 490.14ZM512.687 492.151C514.273 494.497 517.727 494.497 519.313 492.151L517.657 491.031C516.864 492.204 515.136 492.204 514.343 491.031L512.687 492.151ZM509.669 489.26C510.333 489.26 510.954 489.59 511.326 490.14L512.983 489.019C512.239 487.919 510.997 487.26 509.669 487.26V489.26ZM469 485.26C469 487.469 470.791 489.26 473 489.26V487.26C471.895 487.26 471 486.365 471 485.26H469ZM559 426C560.105 426 561 426.895 561 428H563C563 425.791 561.209 424 559 424V426ZM473 424C470.791 424 469 425.791 469 428H471C471 426.895 471.895 426 473 426V424Z" fill="#D8E0F7" mask="url(#path-30-inside-2_19271_4)"/>
<path d="M499 458.25C499 448.723 506.668 441 516.128 441C517.871 441 519.554 441.262 521.139 441.75" stroke="#5F82FF" stroke-width="4" stroke-linecap="round" stroke-linejoin="round"/>
<path fill-rule="evenodd" clip-rule="evenodd" d="M512.442 461.962C514.477 464.013 517.778 464.013 519.814 461.962C521.849 459.912 530.276 445.5 529.532 444.75C528.787 444 514.477 452.487 512.442 454.538C510.406 456.588 510.406 459.912 512.442 461.962ZM516.128 459.75C516.95 459.75 517.617 459.078 517.617 458.25C517.617 457.422 516.95 456.75 516.128 456.75C515.305 456.75 514.638 457.422 514.638 458.25C514.638 459.078 515.305 459.75 516.128 459.75Z" fill="#5F82FF"/>
<ellipse cx="501.234" cy="467.25" rx="1.48936" ry="1.5" fill="#5F82FF"/>
<ellipse cx="507.191" cy="473.25" rx="1.48936" ry="1.5" fill="#5F82FF"/>
<ellipse cx="516.128" cy="475.5" rx="1.48936" ry="1.5" fill="#5F82FF"/>
<ellipse cx="525.064" cy="473.25" rx="1.48936" ry="1.5" fill="#5F82FF"/>
<ellipse cx="530.277" cy="467.25" rx="1.48936" ry="1.5" fill="#5F82FF"/>
<ellipse cx="532.511" cy="458.25" rx="1.48936" ry="1.5" fill="#5F82FF"/>
<path d="M91 481.25C91 471.723 98.6683 464 108.128 464C109.871 464 111.554 464.262 113.139 464.75" stroke="#5F82FF" stroke-width="4" stroke-linecap="round" stroke-linejoin="round"/>
<path fill-rule="evenodd" clip-rule="evenodd" d="M104.442 484.962C106.477 487.013 109.778 487.013 111.814 484.962C113.849 482.912 122.276 468.5 121.532 467.75C120.787 467 106.477 475.487 104.442 477.538C102.406 479.588 102.406 482.912 104.442 484.962ZM108.128 482.75C108.95 482.75 109.617 482.078 109.617 481.25C109.617 480.422 108.95 479.75 108.128 479.75C107.305 479.75 106.638 480.422 106.638 481.25C106.638 482.078 107.305 482.75 108.128 482.75Z" fill="#5F82FF"/>
<ellipse cx="93.234" cy="490.25" rx="1.48936" ry="1.5" fill="#5F82FF"/>
<ellipse cx="99.1915" cy="496.25" rx="1.48936" ry="1.5" fill="#5F82FF"/>
<ellipse cx="108.128" cy="498.5" rx="1.48936" ry="1.5" fill="#5F82FF"/>
<ellipse cx="117.064" cy="496.25" rx="1.48936" ry="1.5" fill="#5F82FF"/>
<ellipse cx="122.277" cy="490.25" rx="1.48936" ry="1.5" fill="#5F82FF"/>
<ellipse cx="124.511" cy="481.25" rx="1.48936" ry="1.5" fill="#5F82FF"/>
<mask id="path-48-inside-3_19271_4" fill="white">
<path fill-rule="evenodd" clip-rule="evenodd" d="M971 286C971 284.343 969.657 283 968 283H882C880.343 283 879 284.343 879 286V343.26C879 344.917 880.343 346.26 882 346.26H918.669C919.665 346.26 920.596 346.754 921.154 347.579L922.515 349.591C923.705 351.35 926.295 351.35 927.485 349.591L928.846 347.579C929.404 346.754 930.335 346.26 931.331 346.26H968C969.657 346.26 971 344.917 971 343.26V286Z"/>
</mask>
<path fill-rule="evenodd" clip-rule="evenodd" d="M971 286C971 284.343 969.657 283 968 283H882C880.343 283 879 284.343 879 286V343.26C879 344.917 880.343 346.26 882 346.26H918.669C919.665 346.26 920.596 346.754 921.154 347.579L922.515 349.591C923.705 351.35 926.295 351.35 927.485 349.591L928.846 347.579C929.404 346.754 930.335 346.26 931.331 346.26H968C969.657 346.26 971 344.917 971 343.26V286Z" fill="white"/>
<path d="M928.846 347.579L928.017 347.019L928.846 347.579ZM922.515 349.591L923.343 349.031L922.515 349.591ZM927.485 349.591L928.313 350.151L927.485 349.591ZM882 284H968V282H882V284ZM880 343.26V286H878V343.26H880ZM918.669 345.26H882V347.26H918.669V345.26ZM923.343 349.031L921.983 347.019L920.326 348.14L921.687 350.151L923.343 349.031ZM928.017 347.019L926.657 349.031L928.313 350.151L929.674 348.14L928.017 347.019ZM968 345.26H931.331V347.26H968V345.26ZM970 286V343.26H972V286H970ZM968 347.26C970.209 347.26 972 345.469 972 343.26H970C970 344.365 969.105 345.26 968 345.26V347.26ZM929.674 348.14C930.046 347.59 930.667 347.26 931.331 347.26V345.26C930.003 345.26 928.761 345.919 928.017 347.019L929.674 348.14ZM921.687 350.151C923.273 352.497 926.727 352.497 928.313 350.151L926.657 349.031C925.863 350.204 924.136 350.204 923.343 349.031L921.687 350.151ZM918.669 347.26C919.333 347.26 919.954 347.59 920.326 348.14L921.983 347.019C921.239 345.919 919.997 345.26 918.669 345.26V347.26ZM878 343.26C878 345.469 879.791 347.26 882 347.26V345.26C880.895 345.26 880 344.365 880 343.26H878ZM968 284C969.105 284 970 284.895 970 286H972C972 283.791 970.209 282 968 282V284ZM882 282C879.791 282 878 283.791 878 286H880C880 284.895 880.895 284 882 284V282Z" fill="#D8E0F7" mask="url(#path-48-inside-3_19271_4)"/>
<path d="M908 316.25C908 306.723 915.668 299 925.128 299C926.871 299 928.554 299.262 930.139 299.75" stroke="#5F82FF" stroke-width="4" stroke-linecap="round" stroke-linejoin="round"/>
<path fill-rule="evenodd" clip-rule="evenodd" d="M921.442 319.962C923.477 322.013 926.778 322.013 928.814 319.962C930.849 317.912 939.276 303.5 938.532 302.75C937.787 302 923.477 310.487 921.442 312.538C919.406 314.588 919.406 317.912 921.442 319.962ZM925.128 317.75C925.95 317.75 926.617 317.078 926.617 316.25C926.617 315.422 925.95 314.75 925.128 314.75C924.305 314.75 923.638 315.422 923.638 316.25C923.638 317.078 924.305 317.75 925.128 317.75Z" fill="#5F82FF"/>
<ellipse cx="910.234" cy="325.25" rx="1.48936" ry="1.5" fill="#5F82FF"/>
<ellipse cx="916.192" cy="331.25" rx="1.48936" ry="1.5" fill="#5F82FF"/>
<ellipse cx="925.128" cy="333.5" rx="1.48936" ry="1.5" fill="#5F82FF"/>
<ellipse cx="934.064" cy="331.25" rx="1.48936" ry="1.5" fill="#5F82FF"/>
<ellipse cx="939.277" cy="325.25" rx="1.48936" ry="1.5" fill="#5F82FF"/>
<ellipse cx="941.511" cy="316.25" rx="1.48936" ry="1.5" fill="#5F82FF"/>
<mask id="path-58-inside-4_19271_4" fill="white">
<path fill-rule="evenodd" clip-rule="evenodd" d="M1379 173C1379 171.343 1377.66 170 1376 170H1290C1288.34 170 1287 171.343 1287 173V230.26C1287 231.917 1288.34 233.26 1290 233.26H1326.67C1327.67 233.26 1328.6 233.754 1329.15 234.579L1330.51 236.591C1331.7 238.35 1334.3 238.35 1335.48 236.591L1336.85 234.579C1337.4 233.754 1338.33 233.26 1339.33 233.26H1376C1377.66 233.26 1379 231.917 1379 230.26V173Z"/>
</mask>
<path fill-rule="evenodd" clip-rule="evenodd" d="M1379 173C1379 171.343 1377.66 170 1376 170H1290C1288.34 170 1287 171.343 1287 173V230.26C1287 231.917 1288.34 233.26 1290 233.26H1326.67C1327.67 233.26 1328.6 233.754 1329.15 234.579L1330.51 236.591C1331.7 238.35 1334.3 238.35 1335.48 236.591L1336.85 234.579C1337.4 233.754 1338.33 233.26 1339.33 233.26H1376C1377.66 233.26 1379 231.917 1379 230.26V173Z" fill="white"/>
<path d="M1336.85 234.579L1336.02 234.019L1336.85 234.579ZM1330.51 236.591L1331.34 236.031L1330.51 236.591ZM1335.48 236.591L1336.31 237.151L1335.48 236.591ZM1290 171H1376V169H1290V171ZM1288 230.26V173H1286V230.26H1288ZM1326.67 232.26H1290V234.26H1326.67V232.26ZM1331.34 236.031L1329.98 234.019L1328.33 235.14L1329.69 237.151L1331.34 236.031ZM1336.02 234.019L1334.66 236.031L1336.31 237.151L1337.67 235.14L1336.02 234.019ZM1376 232.26H1339.33V234.26H1376V232.26ZM1378 173V230.26H1380V173H1378ZM1376 234.26C1378.21 234.26 1380 232.469 1380 230.26H1378C1378 231.365 1377.1 232.26 1376 232.26V234.26ZM1337.67 235.14C1338.05 234.59 1338.67 234.26 1339.33 234.26V232.26C1338 232.26 1336.76 232.919 1336.02 234.019L1337.67 235.14ZM1329.69 237.151C1331.27 239.497 1334.73 239.497 1336.31 237.151L1334.66 236.031C1333.86 237.204 1332.14 237.204 1331.34 236.031L1329.69 237.151ZM1326.67 234.26C1327.33 234.26 1327.95 234.59 1328.33 235.14L1329.98 234.019C1329.24 232.919 1328 232.26 1326.67 232.26V234.26ZM1286 230.26C1286 232.469 1287.79 234.26 1290 234.26V232.26C1288.9 232.26 1288 231.365 1288 230.26H1286ZM1376 171C1377.1 171 1378 171.895 1378 173H1380C1380 170.791 1378.21 169 1376 169V171ZM1290 169C1287.79 169 1286 170.791 1286 173H1288C1288 171.895 1288.9 171 1290 171V169Z" fill="#D8E0F7" mask="url(#path-58-inside-4_19271_4)"/>
<path d="M1316 203.25C1316 193.723 1323.67 186 1333.13 186C1334.87 186 1336.55 186.262 1338.14 186.75" stroke="#5F82FF" stroke-width="4" stroke-linecap="round" stroke-linejoin="round"/>
<path fill-rule="evenodd" clip-rule="evenodd" d="M1329.44 206.962C1331.48 209.013 1334.78 209.013 1336.81 206.962C1338.85 204.912 1347.28 190.5 1346.53 189.75C1345.79 189 1331.48 197.487 1329.44 199.538C1327.41 201.588 1327.41 204.912 1329.44 206.962ZM1333.13 204.75C1333.95 204.75 1334.62 204.078 1334.62 203.25C1334.62 202.422 1333.95 201.75 1333.13 201.75C1332.3 201.75 1331.64 202.422 1331.64 203.25C1331.64 204.078 1332.3 204.75 1333.13 204.75Z" fill="#5F82FF"/>
<ellipse cx="1318.23" cy="212.25" rx="1.48936" ry="1.5" fill="#5F82FF"/>
<ellipse cx="1324.19" cy="218.25" rx="1.48936" ry="1.5" fill="#5F82FF"/>
<ellipse cx="1333.13" cy="220.5" rx="1.48936" ry="1.5" fill="#5F82FF"/>
<ellipse cx="1342.06" cy="218.25" rx="1.48936" ry="1.5" fill="#5F82FF"/>
<ellipse cx="1347.28" cy="212.25" rx="1.48936" ry="1.5" fill="#5F82FF"/>
<ellipse cx="1349.51" cy="203.25" rx="1.48936" ry="1.5" fill="#5F82FF"/>
</g>
<defs>
<filter id="filter0_d_19271_4" x="902" y="351" width="45" height="45" filterUnits="userSpaceOnUse" color-interpolation-filters="sRGB">
<feFlood flood-opacity="0" result="BackgroundImageFix"/>
<feColorMatrix in="SourceAlpha" type="matrix" values="0 0 0 0 0 0 0 0 0 0 0 0 0 0 0 0 0 0 127 0" result="hardAlpha"/>
<feOffset/>
<feGaussianBlur stdDeviation="7.5"/>
<feColorMatrix type="matrix" values="0 0 0 0 0.323144 0 0 0 0 0.512664 0 0 0 0 1 0 0 0 0.25 0"/>
<feBlend mode="normal" in2="BackgroundImageFix" result="effect1_dropShadow_19271_4"/>
<feBlend mode="normal" in="SourceGraphic" in2="effect1_dropShadow_19271_4" result="shape"/>
</filter>
<filter id="filter1_d_19271_4" x="1310" y="237" width="45" height="45" filterUnits="userSpaceOnUse" color-interpolation-filters="sRGB">
<feFlood flood-opacity="0" result="BackgroundImageFix"/>
<feColorMatrix in="SourceAlpha" type="matrix" values="0 0 0 0 0 0 0 0 0 0 0 0 0 0 0 0 0 0 127 0" result="hardAlpha"/>
<feOffset/>
<feGaussianBlur stdDeviation="7.5"/>
<feColorMatrix type="matrix" values="0 0 0 0 0.323144 0 0 0 0 0.512664 0 0 0 0 1 0 0 0 0.25 0"/>
<feBlend mode="normal" in2="BackgroundImageFix" result="effect1_dropShadow_19271_4"/>
<feBlend mode="normal" in="SourceGraphic" in2="effect1_dropShadow_19271_4" result="shape"/>
</filter>
<filter id="filter2_d_19271_4" x="85" y="522" width="45" height="45" filterUnits="userSpaceOnUse" color-interpolation-filters="sRGB">
<feFlood flood-opacity="0" result="BackgroundImageFix"/>
<feColorMatrix in="SourceAlpha" type="matrix" values="0 0 0 0 0 0 0 0 0 0 0 0 0 0 0 0 0 0 127 0" result="hardAlpha"/>
<feOffset/>
<feGaussianBlur stdDeviation="7.5"/>
<feColorMatrix type="matrix" values="0 0 0 0 0.323144 0 0 0 0 0.512664 0 0 0 0 1 0 0 0 0.25 0"/>
<feBlend mode="normal" in2="BackgroundImageFix" result="effect1_dropShadow_19271_4"/>
<feBlend mode="normal" in="SourceGraphic" in2="effect1_dropShadow_19271_4" result="shape"/>
</filter>
<filter id="filter3_d_19271_4" x="208" y="378.48" width="113.441" height="101.949" filterUnits="userSpaceOnUse" color-interpolation-filters="sRGB">
<feFlood flood-opacity="0" result="BackgroundImageFix"/>
<feColorMatrix in="SourceAlpha" type="matrix" values="0 0 0 0 0 0 0 0 0 0 0 0 0 0 0 0 0 0 127 0" result="hardAlpha"/>
<feOffset dy="5"/>
<feGaussianBlur stdDeviation="22.5"/>
<feColorMatrix type="matrix" values="0 0 0 0 0.593724 0 0 0 0 0.684469 0 0 0 0 0.888646 0 0 0 0.1 0"/>
<feBlend mode="normal" in2="BackgroundImageFix" result="effect1_dropShadow_19271_4"/>
<feBlend mode="normal" in="SourceGraphic" in2="effect1_dropShadow_19271_4" result="shape"/>
</filter>
<filter id="filter4_d_19271_4" x="249.366" y="384.455" width="122.634" height="106.545" filterUnits="userSpaceOnUse" color-interpolation-filters="sRGB">
<feFlood flood-opacity="0" result="BackgroundImageFix"/>
<feColorMatrix in="SourceAlpha" type="matrix" values="0 0 0 0 0 0 0 0 0 0 0 0 0 0 0 0 0 0 127 0" result="hardAlpha"/>
<feOffset dy="5"/>
<feGaussianBlur stdDeviation="22.5"/>
<feColorMatrix type="matrix" values="0 0 0 0 0.593724 0 0 0 0 0.684469 0 0 0 0 0.888646 0 0 0 0.1 0"/>
<feBlend mode="normal" in2="BackgroundImageFix" result="effect1_dropShadow_19271_4"/>
<feBlend mode="normal" in="SourceGraphic" in2="effect1_dropShadow_19271_4" result="shape"/>
</filter>
<filter id="filter5_d_19271_4" x="216.273" y="376.182" width="139.64" height="114.818" filterUnits="userSpaceOnUse" color-interpolation-filters="sRGB">
<feFlood flood-opacity="0" result="BackgroundImageFix"/>
<feColorMatrix in="SourceAlpha" type="matrix" values="0 0 0 0 0 0 0 0 0 0 0 0 0 0 0 0 0 0 127 0" result="hardAlpha"/>
<feOffset dy="5"/>
<feGaussianBlur stdDeviation="22.5"/>
<feColorMatrix type="matrix" values="0 0 0 0 0.593724 0 0 0 0 0.684469 0 0 0 0 0.888646 0 0 0 0.1 0"/>
<feBlend mode="normal" in2="BackgroundImageFix" result="effect1_dropShadow_19271_4"/>
<feBlend mode="normal" in="SourceGraphic" in2="effect1_dropShadow_19271_4" result="shape"/>
</filter>
<filter id="filter6_d_19271_4" x="1126" y="474.459" width="158.021" height="124.541" filterUnits="userSpaceOnUse" color-interpolation-filters="sRGB">
<feFlood flood-opacity="0" result="BackgroundImageFix"/>
<feColorMatrix in="SourceAlpha" type="matrix" values="0 0 0 0 0 0 0 0 0 0 0 0 0 0 0 0 0 0 127 0" result="hardAlpha"/>
<feOffset dy="5"/>
<feGaussianBlur stdDeviation="22.5"/>
<feColorMatrix type="matrix" values="0 0 0 0 0.593724 0 0 0 0 0.684469 0 0 0 0 0.888646 0 0 0 0.1 0"/>
<feBlend mode="normal" in2="BackgroundImageFix" result="effect1_dropShadow_19271_4"/>
<feBlend mode="normal" in="SourceGraphic" in2="effect1_dropShadow_19271_4" result="shape"/>
</filter>
<filter id="filter7_d_19271_4" x="1113" y="445" width="137.367" height="114.081" filterUnits="userSpaceOnUse" color-interpolation-filters="sRGB">
<feFlood flood-opacity="0" result="BackgroundImageFix"/>
<feColorMatrix in="SourceAlpha" type="matrix" values="0 0 0 0 0 0 0 0 0 0 0 0 0 0 0 0 0 0 127 0" result="hardAlpha"/>
<feOffset dy="5"/>
<feGaussianBlur stdDeviation="22.5"/>
<feColorMatrix type="matrix" values="0 0 0 0 0.593724 0 0 0 0 0.684469 0 0 0 0 0.888646 0 0 0 0.1 0"/>
<feBlend mode="normal" in2="BackgroundImageFix" result="effect1_dropShadow_19271_4"/>
<feBlend mode="normal" in="SourceGraphic" in2="effect1_dropShadow_19271_4" result="shape"/>
</filter>
<filter id="filter8_d_19271_4" x="1040" y="457.189" width="193.469" height="141.811" filterUnits="userSpaceOnUse" color-interpolation-filters="sRGB">
<feFlood flood-opacity="0" result="BackgroundImageFix"/>
<feColorMatrix in="SourceAlpha" type="matrix" values="0 0 0 0 0 0 0 0 0 0 0 0 0 0 0 0 0 0 127 0" result="hardAlpha"/>
<feOffset dy="5"/>
<feGaussianBlur stdDeviation="22.5"/>
<feColorMatrix type="matrix" values="0 0 0 0 0.593724 0 0 0 0 0.684469 0 0 0 0 0.888646 0 0 0 0.1 0"/>
<feBlend mode="normal" in2="BackgroundImageFix" result="effect1_dropShadow_19271_4"/>
<feBlend mode="normal" in="SourceGraphic" in2="effect1_dropShadow_19271_4" result="shape"/>
</filter>
<filter id="filter9_d_19271_4" x="1179" y="33" width="167.814" height="129" filterUnits="userSpaceOnUse" color-interpolation-filters="sRGB">
<feFlood flood-opacity="0" result="BackgroundImageFix"/>
<feColorMatrix in="SourceAlpha" type="matrix" values="0 0 0 0 0 0 0 0 0 0 0 0 0 0 0 0 0 0 127 0" result="hardAlpha"/>
<feOffset dy="5"/>
<feGaussianBlur stdDeviation="22.5"/>
<feColorMatrix type="matrix" values="0 0 0 0 0.593724 0 0 0 0 0.684469 0 0 0 0 0.888646 0 0 0 0.1 0"/>
<feBlend mode="normal" in2="BackgroundImageFix" result="effect1_dropShadow_19271_4"/>
<feBlend mode="normal" in="SourceGraphic" in2="effect1_dropShadow_19271_4" result="shape"/>
</filter>
<filter id="filter10_d_19271_4" x="1212" y="66" width="135" height="113" filterUnits="userSpaceOnUse" color-interpolation-filters="sRGB">
<feFlood flood-opacity="0" result="BackgroundImageFix"/>
<feColorMatrix in="SourceAlpha" type="matrix" values="0 0 0 0 0 0 0 0 0 0 0 0 0 0 0 0 0 0 127 0" result="hardAlpha"/>
<feOffset dy="5"/>
<feGaussianBlur stdDeviation="22.5"/>
<feColorMatrix type="matrix" values="0 0 0 0 0.593724 0 0 0 0 0.684469 0 0 0 0 0.888646 0 0 0 0.1 0"/>
<feBlend mode="normal" in2="BackgroundImageFix" result="effect1_dropShadow_19271_4"/>
<feBlend mode="normal" in="SourceGraphic" in2="effect1_dropShadow_19271_4" result="shape"/>
</filter>
<filter id="filter11_d_19271_4" x="208" y="72" width="135" height="113" filterUnits="userSpaceOnUse" color-interpolation-filters="sRGB">
<feFlood flood-opacity="0" result="BackgroundImageFix"/>
<feColorMatrix in="SourceAlpha" type="matrix" values="0 0 0 0 0 0 0 0 0 0 0 0 0 0 0 0 0 0 127 0" result="hardAlpha"/>
<feOffset dy="5"/>
<feGaussianBlur stdDeviation="22.5"/>
<feColorMatrix type="matrix" values="0 0 0 0 0.593724 0 0 0 0 0.684469 0 0 0 0 0.888646 0 0 0 0.1 0"/>
<feBlend mode="normal" in2="BackgroundImageFix" result="effect1_dropShadow_19271_4"/>
<feBlend mode="normal" in="SourceGraphic" in2="effect1_dropShadow_19271_4" result="shape"/>
</filter>
<filter id="filter12_d_19271_4" x="-44.5" y="156" width="164.5" height="166" filterUnits="userSpaceOnUse" color-interpolation-filters="sRGB">
<feFlood flood-opacity="0" result="BackgroundImageFix"/>
<feColorMatrix in="SourceAlpha" type="matrix" values="0 0 0 0 0 0 0 0 0 0 0 0 0 0 0 0 0 0 127 0" result="hardAlpha"/>
<feOffset dy="5"/>
<feGaussianBlur stdDeviation="22.5"/>
<feColorMatrix type="matrix" values="0 0 0 0 0.593724 0 0 0 0 0.684469 0 0 0 0 0.888646 0 0 0 0.1 0"/>
<feBlend mode="normal" in2="BackgroundImageFix" result="effect1_dropShadow_19271_4"/>
<feBlend mode="normal" in="SourceGraphic" in2="effect1_dropShadow_19271_4" result="shape"/>
</filter>
<filter id="filter13_d_19271_4" x="262.224" y="366" width="109.776" height="100.182" filterUnits="userSpaceOnUse" color-interpolation-filters="sRGB">
<feFlood flood-opacity="0" result="BackgroundImageFix"/>
<feColorMatrix in="SourceAlpha" type="matrix" values="0 0 0 0 0 0 0 0 0 0 0 0 0 0 0 0 0 0 127 0" result="hardAlpha"/>
<feOffset dy="5"/>
<feGaussianBlur stdDeviation="22.5"/>
<feColorMatrix type="matrix" values="0 0 0 0 0.593724 0 0 0 0 0.684469 0 0 0 0 0.888646 0 0 0 0.1 0"/>
<feBlend mode="normal" in2="BackgroundImageFix" result="effect1_dropShadow_19271_4"/>
<feBlend mode="normal" in="SourceGraphic" in2="effect1_dropShadow_19271_4" result="shape"/>
</filter>
<filter id="filter14_d_19271_4" x="1163" y="17" width="121" height="106" filterUnits="userSpaceOnUse" color-interpolation-filters="sRGB">
<feFlood flood-opacity="0" result="BackgroundImageFix"/>
<feColorMatrix in="SourceAlpha" type="matrix" values="0 0 0 0 0 0 0 0 0 0 0 0 0 0 0 0 0 0 127 0" result="hardAlpha"/>
<feOffset dy="5"/>
<feGaussianBlur stdDeviation="22.5"/>
<feColorMatrix type="matrix" values="0 0 0 0 0.593724 0 0 0 0 0.684469 0 0 0 0 0.888646 0 0 0 0.1 0"/>
<feBlend mode="normal" in2="BackgroundImageFix" result="effect1_dropShadow_19271_4"/>
<feBlend mode="normal" in="SourceGraphic" in2="effect1_dropShadow_19271_4" result="shape"/>
</filter>
<filter id="filter15_d_19271_4" x="-30" y="0" width="1500" height="562" filterUnits="userSpaceOnUse" color-interpolation-filters="sRGB">
<feFlood flood-opacity="0" result="BackgroundImageFix"/>
<feColorMatrix in="SourceAlpha" type="matrix" values="0 0 0 0 0 0 0 0 0 0 0 0 0 0 0 0 0 0 127 0" result="hardAlpha"/>
<feOffset dy="10"/>
<feGaussianBlur stdDeviation="15"/>
<feColorMatrix type="matrix" values="0 0 0 0 0.894415 0 0 0 0 0.918495 0 0 0 0 0.984716 0 0 0 1 0"/>
<feBlend mode="normal" in2="BackgroundImageFix" result="effect1_dropShadow_19271_4"/>
<feBlend mode="normal" in="SourceGraphic" in2="effect1_dropShadow_19271_4" result="shape"/>
</filter>
<filter id="filter16_d_19271_4" x="493" y="492" width="45" height="45" filterUnits="userSpaceOnUse" color-interpolation-filters="sRGB">
<feFlood flood-opacity="0" result="BackgroundImageFix"/>
<feColorMatrix in="SourceAlpha" type="matrix" values="0 0 0 0 0 0 0 0 0 0 0 0 0 0 0 0 0 0 127 0" result="hardAlpha"/>
<feOffset/>
<feGaussianBlur stdDeviation="7.5"/>
<feColorMatrix type="matrix" values="0 0 0 0 0.323144 0 0 0 0 0.512664 0 0 0 0 1 0 0 0 0.25 0"/>
<feBlend mode="normal" in2="BackgroundImageFix" result="effect1_dropShadow_19271_4"/>
<feBlend mode="normal" in="SourceGraphic" in2="effect1_dropShadow_19271_4" result="shape"/>
</filter>
<linearGradient id="paint0_linear_19271_4" x1="278.466" y1="590.443" x2="278.466" y2="135.005" gradientUnits="userSpaceOnUse">
<stop stop-color="#4B71FF" stop-opacity="0"/>
<stop offset="1" stop-color="#6B89F8"/>
</linearGradient>
</defs>
</svg>
