<svg width="67" height="65" viewBox="0 0 67 65" fill="none" xmlns="http://www.w3.org/2000/svg">
<path d="M2 31.9685C2 15.4173 16.2412 2 33.8085 2C37.0463 2 40.1712 2.45579 43.1147 3.30298" stroke="white" stroke-width="4" stroke-linecap="round" stroke-linejoin="round"/>
<path fill-rule="evenodd" clip-rule="evenodd" d="M26.9629 38.4178C30.7435 41.9797 36.8731 41.9797 40.6537 38.4178C44.4343 34.8559 60.0847 9.81784 58.7017 8.51486C57.3188 7.21188 30.7435 21.9571 26.9629 25.519C23.1823 29.0809 23.1823 34.8559 26.9629 38.4178ZM33.8081 34.5744C35.3357 34.5744 36.5741 33.4077 36.5741 31.9685C36.5741 30.5293 35.3357 29.3625 33.8081 29.3625C32.2805 29.3625 31.0422 30.5293 31.0422 31.9685C31.0422 33.4077 32.2805 34.5744 33.8081 34.5744Z" fill="white"/>
<ellipse cx="6.14901" cy="47.6042" rx="2.76596" ry="2.60595" fill="white"/>
<ellipse cx="17.2127" cy="58.0281" rx="2.76596" ry="2.60595" fill="white"/>
<ellipse cx="33.8084" cy="61.937" rx="2.76596" ry="2.60595" fill="white"/>
<ellipse cx="50.4041" cy="58.0281" rx="2.76596" ry="2.60595" fill="white"/>
<ellipse cx="60.085" cy="47.6042" rx="2.76596" ry="2.60595" fill="white"/>
<ellipse cx="64.234" cy="31.9685" rx="2.76596" ry="2.60595" fill="white"/>
</svg>
